<svg width="28" height="29" viewBox="0 0 28 29" fill="none" xmlns="http://www.w3.org/2000/svg">
<path d="M13.8516 26.293C7.41797 26.293 2.09766 20.9727 2.09766 14.5391C2.09766 8.09375 7.40625 2.78516 13.8398 2.78516C20.2852 2.78516 25.6055 8.09375 25.6055 14.5391C25.6055 20.9727 20.2852 26.293 13.8516 26.293ZM13.8516 24.7695C19.5234 24.7695 24.0938 20.1992 24.0938 14.5391C24.0938 8.86719 19.5117 4.29688 13.8398 4.29688C8.17969 4.29688 3.62109 8.86719 3.62109 14.5391C3.62109 20.1992 8.17969 24.7695 13.8516 24.7695ZM19.875 14.5273C19.875 14.7266 19.7812 14.8906 19.6172 15.0547L15.4453 19.2266C15.3281 19.3438 15.1641 19.4258 14.9648 19.4258C14.5898 19.4258 14.3203 19.1328 14.3203 18.7695C14.3203 18.5586 14.3906 18.3945 14.5312 18.2656L16.3711 16.4492L17.8242 15.1367L15.6562 15.207H8.48438C8.08594 15.207 7.80469 14.9141 7.80469 14.5273C7.80469 14.1172 8.08594 13.8359 8.48438 13.8359H15.6562L17.8125 13.918L16.3711 12.6055L14.5312 10.7773C14.4023 10.6484 14.3203 10.4844 14.3203 10.2852C14.3203 9.91016 14.5898 9.62891 14.9648 9.62891C15.1641 9.62891 15.3281 9.69922 15.4453 9.81641L19.6172 14C19.793 14.1758 19.875 14.3398 19.875 14.5273Z" fill="#F26430"/>
</svg>
