<svg width="17" height="16" viewBox="0 0 17 16" fill="none" xmlns="http://www.w3.org/2000/svg">
<path d="M8.76563 0.304688C13.0547 0.304688 16.6016 3.85156 16.6016 8.14062C16.6016 12.4375 13.0625 15.9766 8.77344 15.9766C4.47656 15.9766 0.929688 12.4375 0.929688 8.14062C0.929688 3.85156 4.47656 0.304688 8.76563 0.304688ZM8.76563 1.32031C4.98438 1.32031 1.9375 4.36719 1.9375 8.14062C1.9375 11.9219 4.99219 14.9687 8.77344 14.9687C12.5469 14.9688 15.5859 11.9219 15.5859 8.14062C15.5859 4.36719 12.5469 1.32031 8.76563 1.32031ZM8.17188 5.59375C8.54688 5.19531 8.98438 5.1875 9.35938 5.59375L12.6016 8.96875C12.7812 9.16406 12.7891 9.4375 12.6172 9.625C12.4375 9.8125 12.1328 9.82031 11.9531 9.625L8.76563 6.29687L5.58594 9.625C5.40625 9.82031 5.10938 9.80469 4.92188 9.625C4.74219 9.44531 4.75781 9.16406 4.9375 8.96875L8.17188 5.59375Z" fill="#F26430"/>
</svg>
