<svg width="15" height="19" viewBox="0 0 15 19" fill="none" xmlns="http://www.w3.org/2000/svg">
<path d="M7.92188 12.4844C7.58594 12.4844 7.30469 12.2031 7.30469 11.875V3.85156L7.35156 2.67969L6.82031 3.23438L5.64062 4.5C5.53125 4.625 5.35938 4.6875 5.21094 4.6875C4.88281 4.6875 4.64844 4.45312 4.64844 4.13281C4.64844 3.96875 4.71094 3.84375 4.82812 3.72656L7.46875 1.17969C7.63281 1.02344 7.76562 0.96875 7.92188 0.96875C8.08594 0.96875 8.21875 1.02344 8.375 1.17969L11.0156 3.72656C11.1328 3.84375 11.2031 3.96875 11.2031 4.13281C11.2031 4.45312 10.9531 4.6875 10.6328 4.6875C10.4766 4.6875 10.3203 4.625 10.2109 4.5L9.02344 3.23438L8.5 2.67969L8.54688 3.85156V11.875C8.54688 12.2031 8.25781 12.4844 7.92188 12.4844ZM3.44531 18.6016C1.8125 18.6016 0.992188 17.7891 0.992188 16.1797V8.38281C0.992188 6.77344 1.8125 5.96094 3.44531 5.96094H5.625V7.21875H3.46094C2.67969 7.21875 2.25 7.64062 2.25 8.45312V16.1094C2.25 16.9219 2.67969 17.3438 3.46094 17.3438H12.3828C13.1562 17.3438 13.6016 16.9219 13.6016 16.1094V8.45312C13.6016 7.64062 13.1562 7.21875 12.3828 7.21875H10.2266V5.96094H12.4062C14.0391 5.96094 14.8594 6.77344 14.8594 8.38281V16.1797C14.8594 17.7891 14.0391 18.6016 12.4062 18.6016H3.44531Z" fill="#4E5255"/>
</svg>
