<svg width="47" height="46" viewBox="0 0 47 46" fill="none" xmlns="http://www.w3.org/2000/svg">
<path d="M11.8477 39.832C8.35156 39.832 6.73047 38.2109 6.73047 34.7148V30.4961C6.73047 30.0859 6.63281 29.8125 6.33984 29.5L3.35156 26.4922C0.890625 24.0312 0.871094 21.7461 3.35156 19.2852L6.33984 16.2773C6.63281 15.9844 6.73047 15.6914 6.73047 15.3008V11.0625C6.73047 7.54688 8.35156 5.94531 11.8477 5.94531H16.0859C16.4766 5.94531 16.7695 5.84766 17.0625 5.55469L20.0703 2.56641C22.5312 0.105469 24.8164 0.0859375 27.2773 2.56641L30.2852 5.55469C30.5977 5.84766 30.8711 5.94531 31.2812 5.94531H35.5C39.0156 5.94531 40.6172 7.58594 40.6172 11.0625V15.3008C40.6172 15.6914 40.7344 15.9844 41.0273 16.2773L44.0156 19.2852C46.4766 21.7461 46.4961 24.0312 44.0156 26.4922L41.0273 29.5C40.7344 29.8125 40.6172 30.0859 40.6172 30.4961V34.7148C40.6172 38.2305 38.9961 39.832 35.5 39.832H31.2812C30.8711 39.832 30.5977 39.9492 30.2852 40.2422L27.2773 43.2305C24.8164 45.6914 22.5312 45.7109 20.0703 43.2305L17.0625 40.2422C16.7695 39.9492 16.4766 39.832 16.0859 39.832H11.8477ZM21.4961 32.4297C22.1602 32.4297 22.7266 32.1172 23.1367 31.4922L32.3164 17.0195C32.5508 16.6289 32.8047 16.1797 32.8047 15.7305C32.8047 14.832 32.0039 14.2461 31.1641 14.2461C30.6367 14.2461 30.1289 14.5391 29.7578 15.1445L21.418 28.543L17.4531 23.4258C16.9648 22.7812 16.5352 22.5859 15.9883 22.5859C15.0898 22.5859 14.4062 23.3086 14.4062 24.207C14.4062 24.6367 14.582 25.0859 14.875 25.4766L19.7773 31.4922C20.2852 32.1758 20.832 32.4297 21.4961 32.4297Z" fill="#2EB67D"/>
</svg>
