<svg width="24" height="25" viewBox="0 0 24 25" fill="none" xmlns="http://www.w3.org/2000/svg">
<path d="M11.8516 24.293C5.41797 24.293 0.0976562 18.9727 0.0976562 12.5391C0.0976562 6.09375 5.40625 0.785156 11.8398 0.785156C18.2852 0.785156 23.6055 6.09375 23.6055 12.5391C23.6055 18.9727 18.2852 24.293 11.8516 24.293ZM11.8516 22.7695C17.5234 22.7695 22.0938 18.1992 22.0938 12.5391C22.0938 6.86719 17.5117 2.29688 11.8398 2.29688C6.17969 2.29688 1.62109 6.86719 1.62109 12.5391C1.62109 18.1992 6.17969 22.7695 11.8516 22.7695ZM17.875 12.5273C17.875 12.7266 17.7812 12.8906 17.6172 13.0547L13.4453 17.2266C13.3281 17.3438 13.1641 17.4258 12.9648 17.4258C12.5898 17.4258 12.3203 17.1328 12.3203 16.7695C12.3203 16.5586 12.3906 16.3945 12.5312 16.2656L14.3711 14.4492L15.8242 13.1367L13.6562 13.207H6.48438C6.08594 13.207 5.80469 12.9141 5.80469 12.5273C5.80469 12.1172 6.08594 11.8359 6.48438 11.8359H13.6562L15.8125 11.918L14.3711 10.6055L12.5312 8.77734C12.4023 8.64844 12.3203 8.48438 12.3203 8.28516C12.3203 7.91016 12.5898 7.62891 12.9648 7.62891C13.1641 7.62891 13.3281 7.69922 13.4453 7.81641L17.6172 12C17.793 12.1758 17.875 12.3398 17.875 12.5273Z" fill="white"/>
</svg>
